<svg xmlns="http://www.w3.org/2000/svg" width="16" height="16" viewBox="0 0 16 16">
    <path fill="#2A65B0" fill-rule="evenodd" d="M7.75 0c1.396 0 2.687.349 3.875 1.047a7.831 7.831 0 0 1 2.828 2.828A7.513 7.513 0 0 1 15.5 7.75a7.513 7.513 0 0 1-1.047 3.875 7.831 7.831 0 0 1-2.828 2.828A7.513 7.513 0 0 1 7.75 15.5a7.513 7.513 0 0 1-3.875-1.047 7.831 7.831 0 0 1-2.828-2.828A7.513 7.513 0 0 1 0 7.75c0-1.396.349-2.688 1.047-3.875a7.831 7.831 0 0 1 2.828-2.828A7.513 7.513 0 0 1 7.75 0zm0 14a6.065 6.065 0 0 0 3.125-.844 6.303 6.303 0 0 0 2.281-2.281c.563-.958.844-2 .844-3.125a6.065 6.065 0 0 0-.844-3.125 6.303 6.303 0 0 0-2.281-2.281c-.958-.563-2-.844-3.125-.844a6.065 6.065 0 0 0-3.125.844 6.303 6.303 0 0 0-2.281 2.281c-.563.958-.844 2-.844 3.125s.281 2.167.844 3.125a6.303 6.303 0 0 0 2.281 2.281c.958.563 2 .844 3.125.844zm0-10.563c.354 0 .661.13.922.391.26.26.39.568.39.922 0 .354-.13.661-.39.922-.26.26-.568.39-.922.39a1.26 1.26 0 0 1-.922-.39 1.26 1.26 0 0 1-.39-.922c0-.354.13-.661.39-.922.26-.26.568-.39.922-.39zm1.75 7.938a.362.362 0 0 1-.11.266.362.362 0 0 1-.265.109h-2.75a.362.362 0 0 1-.266-.11.362.362 0 0 1-.109-.265v-.75c0-.104.036-.193.11-.266a.362.362 0 0 1 .265-.109h.375v-2h-.375a.362.362 0 0 1-.266-.11A.362.362 0 0 1 6 7.876v-.75c0-.104.036-.193.11-.266a.362.362 0 0 1 .265-.109h2c.104 0 .193.036.266.11.073.072.109.16.109.265v3.125h.375c.104 0 .193.036.266.11.073.072.109.16.109.265v.75z"/>
</svg>
