<?xml version="1.0" encoding="UTF-8"?>
<svg width="10px" height="6px" viewBox="0 0 10 6" version="1.1" xmlns="http://www.w3.org/2000/svg" xmlns:xlink="http://www.w3.org/1999/xlink">
    <!-- Generator: Sketch 52.5 (67469) - http://www.bohemiancoding.com/sketch -->
    <title>sort-down-light</title>
    <desc>Created with Sketch.</desc>
    <g id="Symbols" stroke="none" stroke-width="1" fill="none" fill-rule="evenodd">
        <g id="Control-/-Sort-/-Ascend-" transform="translate(0.000000, -11.000000)" fill="#BEC5CF">
            <path d="M1.484372,11.0000119 L8.92185426,11.0000119 C9.13018726,11.0000119 9.30726985,11.0729283 9.453103,11.2187614 C9.59893614,11.3645945 9.67185247,11.5416771 9.67185247,11.7500101 C9.67185247,11.9583431 9.59893614,12.1354257 9.453103,12.2812589 L5.73436186,16 C5.58852872,16.1458331 5.41144612,16.2187495 5.20311313,16.2187495 C4.99478013,16.2187495 4.81769754,16.1458331 4.6718644,16 L0.953123262,12.2812589 C0.807290117,12.1354257 0.734373783,11.9583431 0.734373783,11.7500101 C0.734373783,11.5416771 0.807290117,11.3645945 0.953123262,11.2187614 C1.09895641,11.0729283 1.276039,11.0000119 1.484372,11.0000119 Z" id="sort-down-light"></path>
        </g>
    </g>
</svg>