<?xml version="1.0" encoding="UTF-8"?>
<svg width="10px" height="6px" viewBox="0 0 10 6" version="1.1" xmlns="http://www.w3.org/2000/svg" xmlns:xlink="http://www.w3.org/1999/xlink">
    <!-- Generator: Sketch 52.5 (67469) - http://www.bohemiancoding.com/sketch -->
    <title>sort-up-light</title>
    <desc>Created with Sketch.</desc>
    <g id="Symbols" stroke="none" stroke-width="1" fill="none" fill-rule="evenodd">
        <g id="Control-/-Sort-/-Descend" transform="translate(0.000000, -3.000000)" fill="#BEC5CF">
            <path d="M8.92185426,9.00001669 L1.484372,9.00001669 C1.276039,9.00001669 1.09895641,8.92710036 0.953123262,8.78126721 C0.807290117,8.63543407 0.734373783,8.45835147 0.734373783,8.25001848 C0.734373783,8.04168548 0.807290117,7.86460289 0.953123262,7.71876974 L4.6718644,4.00002861 C4.81769754,3.85419547 4.99478013,3.78127913 5.20311313,3.78127913 C5.41144612,3.78127913 5.58852872,3.85419547 5.73436186,4.00002861 L9.453103,7.71876974 C9.59893614,7.86460289 9.67185247,8.04168548 9.67185247,8.25001848 C9.67185247,8.45835147 9.59893614,8.63543407 9.453103,8.78126721 C9.30726985,8.92710036 9.13018726,9.00001669 8.92185426,9.00001669 Z" id="sort-up-light"></path>
        </g>
    </g>
</svg>